<svg xmlns="http://www.w3.org/2000/svg" width="40" height="40" viewBox="0 0 40 40" fill="none">
  <g clip-path="url(#clip0)">
    <path d="M20 0C8.95445 0 0 8.9543 0 20C0 31.0457 8.95445 40 20 40C31.0455 40 40 31.0457 40 20C40 8.9543 31.0455 0 20 0ZM26.9125 21.0602L16.9125 27.3102C16.7102 27.4365 16.4801 27.5 16.25 27.5C16.0416 27.5 15.8328 27.4481 15.6439 27.3431C15.2466 27.1228 15 26.7047 15 26.25V13.75C15 13.2953 15.2466 12.8772 15.6439 12.6569C16.0413 12.4353 16.5271 12.4487 16.9125 12.6898L26.9125 18.9398C27.2778 19.1687 27.5 19.5691 27.5 20C27.5 20.4309 27.2778 20.8313 26.9125 21.0602Z" fill="#F2C94C"></path>
  </g>
  <defs>
    <clipPath id="clip0">
      <rect width="40" height="40" fill="white"></rect>
    </clipPath>
  </defs>
</svg>
