
<svg width="800px" height="800px" viewBox="0 0 1024 1024" class="icon" version="1.1" xmlns="http://www.w3.org/2000/svg"><path d="M903.168 437.76c15.36 0 15.36-23.552 0-23.552H860.16l-1.536-71.168h30.208c15.36 0 15.36-23.552 0-23.552h-30.72c-0.512-20.992-1.024-41.984-2.048-62.976h43.52c15.36 0 15.36-23.552 0-23.552h-44.032c0-4.096-0.512-8.192-0.512-12.288-0.512-16.384-0.512-36.864-7.68-52.224-9.728-20.48-32.256-32.256-53.76-36.864-40.448-8.192-81.408 19.456-87.04 61.44-3.072 24.064-1.024 48.64-1.536 72.704-1.024 32.256-1.024 64.512-0.512 96.768 1.024 33.28 2.56 66.56 2.56 99.84 0 17.92-0.512 36.352-1.536 54.272-1.024 17.92 3.072 43.52-17.408 47.104-8.192 1.536-37.376 5.12-44.032-0.512-7.68-7.168-2.048-44.544-2.048-53.76v-121.344c0-80.896 0.512-161.792 0-242.176 0-1.536-0.512-2.56-0.512-4.096v-3.584c-8.192-45.056-42.496-93.696-89.6-102.4-51.712-9.216-97.28 0-128 46.592-15.872 24.064-12.288 53.248-12.288 80.384v198.144c0 1.536-1.536 12.288 0 13.824-4.096 1.024-20.992-0.512-25.088-0.512-13.824 0-27.136 0.512-40.96 0.512l-1.536-103.424c-0.512-28.672 5.632-68.608-9.216-94.208-13.312-23.04-44.032-27.648-68.608-29.696-27.648-2.048-55.808 4.096-77.312 22.528-21.504 18.432-26.624 44.032-27.136 71.68-0.512 15.36-0.512 30.72-0.512 46.592H120.832c-15.36 0-15.36 23.552 0 23.552H161.28c0 17.408-0.512 34.816-0.512 52.224 0 5.12 0 9.728-0.512 14.848-11.776-1.024-23.04-1.536-34.816-1.024-15.36 0.512-15.36 24.064 0 23.552 11.264-0.512 22.528 0 33.792 1.024-0.512 23.552-1.024 47.616 0.512 71.168 2.048 25.088 8.704 50.688 28.672 67.584 23.552 19.968 56.32 19.968 85.504 19.968h114.688v73.216c-13.312-1.024-26.112-1.536-39.424-1.024-15.36 0.512-15.36 24.064 0 23.552 13.312-0.512 26.112 0 39.424 1.024v73.216c-13.824-1.024-27.648-2.048-41.984-2.048-15.36 0-15.36 23.552 0 23.552 13.824 0 27.648 0.512 41.984 2.048v138.24c0 19.456-5.632 49.152 1.024 67.584 6.144 15.872 24.064 13.312 38.4 13.824 57.344 2.048 114.688 2.56 172.032 1.536 6.656 0 11.776-5.12 11.776-11.776 1.024-41.472 2.048-82.432 2.56-123.904h34.816c15.36 0 15.36-23.552 0-23.552H614.4c0-29.184 0.512-57.856 0-87.04 66.048 0.512 133.632 4.096 199.168-1.024 56.32-4.096 46.592-72.192 46.08-112.64 0-22.016 0-44.032-0.512-66.048 12.8 0.512 25.6 1.024 38.4 0.512 15.36-0.512 15.36-24.576 0-23.552-12.8 0.512-25.6 0.512-38.4-0.512 0-28.672-0.512-57.344-0.512-86.016 15.872-2.56 30.208-2.56 44.544-2.56z m-70.144 252.416c-9.728 17.92-40.448 12.288-57.856 12.288h-55.808c-38.4 0-77.312 0-115.712 0.512-6.144 0-11.776 5.632-11.776 11.776 0.512 78.336-0.512 156.672-2.56 235.008-46.08 0.512-91.648 0.512-137.728-1.024-11.264-0.512-25.088 1.536-36.352-1.024-1.024 0-1.536-0.512-2.048-0.512v-2.048c-1.024-5.632 0-12.288 0-18.432V848.896 546.304c0-7.68-6.144-11.776-12.288-11.264-1.024-0.512-2.048-0.512-3.584-0.512h-104.96c-29.184 0-68.608 5.12-91.136-17.92-22.528-22.528-17.92-62.464-17.408-91.648l1.536-114.176c0-18.432 0.512-36.352 0.512-54.784 0-18.432-1.536-39.936 7.68-56.832 18.432-34.304 65.536-35.328 98.816-26.112 22.528 6.144 27.648 23.04 28.16 45.056 0.512 16.896 0.512 33.792 0.512 51.2l1.536 112.128c0 1.024 0 2.048 0.512 3.072 0 5.632 4.096 11.776 11.264 11.776 26.112 0.512 54.784 3.072 80.896 0 12.8-1.536 18.432-7.68 20.48-20.48 4.096-27.136 0-57.856 0-85.504v-87.552c0-27.648-2.56-56.832 0.512-84.48 3.072-28.16 30.208-56.32 57.856-62.976 24.064-5.632 66.048-1.536 84.992 16.896 18.944 18.432 34.816 45.056 39.424 71.168v1.024c1.024 133.632-0.512 267.264 0.512 400.896 0 17.408 0 33.792 19.456 40.96 15.872 5.632 47.104 2.56 63.488 0 19.456-3.584 22.016-16.896 24.576-34.304 4.096-32.768 5.12-66.048 5.12-99.328-0.512-62.464-4.096-124.928-2.56-187.392 0.512-23.552-4.096-51.2 2.048-74.752 8.192-31.744 40.96-43.52 69.632-32.768 27.136 10.24 29.184 31.232 30.72 56.832 1.536 27.648 2.048 54.784 2.56 82.432 1.536 62.464 2.56 125.44 3.584 187.904 0.512 35.328 0.512 70.656 1.024 105.472V645.12c-1.024 14.336 1.536 32.256-5.632 45.056z" fill="#828282"/><path d="M252.928 244.224c0.512-15.36-23.552-15.36-23.552 0-1.024 43.52-0.512 87.04 1.024 130.56 0.512 15.36 24.064 15.36 23.552 0-1.536-43.52-2.048-87.04-1.024-130.56zM495.104 123.392l-3.072 246.784c0 15.36 23.552 15.36 23.552 0l3.072-246.784c0-15.36-23.552-15.36-23.552 0zM786.944 215.552c0.512-15.36-23.552-15.36-23.552 0-1.536 77.312-1.024 155.136 1.536 232.448 0.512 15.36 24.064 15.36 23.552 0-2.56-77.312-3.072-154.624-1.536-232.448z" fill="#828282"/></svg>